<svg aria-hidden="true" style="position: absolute; width: 0; height: 0; overflow: hidden;" version="1.1" xmlns="http://www.w3.org/2000/svg" xmlns:xlink="http://www.w3.org/1999/xlink">
<defs>
<symbol id="icon-profile-icon" viewBox="0 0 32 32">
<path stroke-linejoin="round" stroke-linecap="round" stroke-miterlimit="4" stroke-width="1.6842" d="M16 0.842c-8.372 0-15.158 6.786-15.158 15.158s6.786 15.158 15.158 15.158c8.372 0 15.158-6.786 15.158-15.158s-6.786-15.158-15.158-15.158z"></path>
<path stroke-linejoin="round" stroke-linecap="round" stroke-miterlimit="4" stroke-width="1.6842" d="M4.211 25.263c0 0 3.4-4.271 11.789-4.271s11.79 4.271 11.79 4.271h-23.579zM15.999 15.74c1.214 0 2.377-0.474 3.236-1.318s1.34-1.989 1.34-3.183-0.482-2.339-1.34-3.183c-0.858-0.844-2.022-1.319-3.236-1.319s-2.377 0.474-3.236 1.319c-0.858 0.844-1.34 1.989-1.34 3.183s0.482 2.339 1.34 3.183c0.858 0.844 2.022 1.318 3.236 1.318v0z"></path>
</symbol>
<symbol id="icon-search-icon" viewBox="0 0 32 32">
<path d="M32 30.326l-8.939-8.939c2.148-2.579 3.219-5.886 2.991-9.235s-1.739-6.48-4.218-8.743c-2.479-2.263-5.734-3.483-9.089-3.407s-6.552 1.443-8.925 3.816c-2.373 2.373-3.74 5.57-3.816 8.925s1.144 6.611 3.407 9.089c2.263 2.479 5.394 3.989 8.743 4.218s6.656-0.843 9.235-2.991l8.939 8.939 1.674-1.674zM2.41 13.062c0-2.107 0.625-4.167 1.795-5.918s2.834-3.117 4.781-3.923c1.947-0.806 4.088-1.017 6.155-0.606s3.964 1.426 5.454 2.915c1.49 1.49 2.504 3.388 2.915 5.454s0.2 4.208-0.606 6.155c-0.806 1.947-2.172 3.61-3.923 4.781s-3.811 1.795-5.918 1.795c-2.824-0.003-5.532-1.127-7.529-3.123s-3.12-4.705-3.124-7.529z"></path>
</symbol>
<symbol id="icon-logo-2" viewBox="0 0 171 32">
<path fill="#c62100" style="fill: var(--color1, #c62100)" d="M1.107 24.712c-0.738-1.508-1.107-3.281-1.107-5.319s0.354-3.839 1.061-5.403c0.738-1.592 1.738-2.96 3-4.105 2.676-2.373 6.030-3.56 10.060-3.56 4.215 0 7.691 0.88 10.429 2.639 3.076 2.011 4.615 4.887 4.615 8.628 0 4.635-1.184 8.056-3.553 10.262-2.338 2.206-5.999 3.309-10.983 3.309-6.922 0-11.429-2.15-13.521-6.45zM3.784 18.555c0 6.59 3.661 9.885 10.983 9.885 3.599 0 6.522-0.977 8.768-2.932 2.246-1.927 3.369-4.454 3.369-7.581 0-2.932-1.338-5.166-4.015-6.702-2.277-1.34-5.153-2.010-8.629-2.010-2.769 0-5.215 0.908-7.337 2.722-2.092 1.815-3.138 4.021-3.138 6.618z"></path>
<path fill="#c62100" style="fill: var(--color1, #c62100)" d="M49.884 22.576c0-3.323-0.2-5.766-0.6-7.33 0.246-0.419-0.123-0.628-1.107-0.628-1.046 0-2.4 0.237-4.061 0.712s-3.015 0.949-4.061 1.424c-2.492 1.089-3.876 2.15-4.153 3.183v11.393h-3.092c-0.4-0.949-0.6-3.616-0.6-8 0-3.909 0.077-6.785 0.231-8.628 0.185-1.843 0.323-2.89 0.415-3.141 0.8-0.475 1.446-0.712 1.938-0.712 0.769 0 1.154 0.824 1.154 2.471 0 0.642-0.046 1.271-0.138 1.885-0.062 0.586-0.092 0.991-0.092 1.215 4.984-3.323 8.845-4.984 11.583-4.984 3.107 0 4.876 2.276 5.307 6.827 0.185 1.592 0.277 3.798 0.277 6.618l-0.046 3.309c0 1.229 0.031 2.415 0.092 3.56-0.308 0.168-0.554 0.251-0.738 0.251-0.092-0.028-0.292-0.070-0.6-0.126s-0.708-0.098-1.2-0.126c-0.308-1.117-0.477-2.248-0.508-3.393-0.031-1.173-0.046-2.248-0.046-3.225l0.046-2.555z"></path>
<path fill="#c62100" style="fill: var(--color1, #c62100)" d="M89.477 24.796c1.538-4.524 3.323-12.789 5.353-24.796 1.938 0 2.953 0.544 3.046 1.633 0.031 0.335 0.046 0.572 0.046 0.712 0.031 0.14-0.015 0.628-0.138 1.466-0.123 0.81-0.308 1.955-0.553 3.435-0.216 1.48-0.492 3.197-0.831 5.152s-0.723 3.993-1.154 6.115c-1.046 4.998-2.122 9.215-3.23 12.649-1.108 0.698-1.969 0.81-2.584 0.335-0.277-0.251-0.523-0.586-0.738-1.005-0.215-0.447-0.461-0.949-0.738-1.508-0.4-0.475-1.138-1.731-2.215-3.77s-1.954-3.658-2.63-4.859c-0.646-1.201-1.277-2.318-1.892-3.351-1.415-2.318-2.6-3.672-3.553-4.063-1.107 1.564-3.076 5.85-5.907 12.859-0.492 1.229-0.938 2.373-1.338 3.435-0.4 1.033-0.738 1.871-1.015 2.513l-2.861-0.126-11.536-24.209c-0.062-0.14-0.092-0.279-0.092-0.419s0.046-0.279 0.138-0.419c0.123-0.14 0.323-0.265 0.6-0.377 0.523-0.168 1.046-0.251 1.569-0.251s0.892 0.098 1.107 0.293c0.246 0.168 0.431 0.391 0.554 0.67 0.154 0.279 0.277 0.586 0.369 0.921s0.262 0.768 0.508 1.298c0.277 0.531 0.661 1.312 1.154 2.346 0.523 1.033 1.077 2.122 1.661 3.267s1.169 2.29 1.754 3.435c0.584 1.117 1.138 2.15 1.661 3.099 1.108 2.094 1.8 3.267 2.077 3.518 3.569-7.986 5.768-12.719 6.599-14.199 0.831-1.508 1.354-2.429 1.569-2.764 0.338-0.475 0.6-0.712 0.785-0.712 1.323 0 3.553 2.681 6.691 8.042 0.861 1.424 1.661 2.792 2.4 4.105 1.815 3.183 2.938 5.026 3.369 5.529z"></path>
<path fill="#c62100" style="fill: var(--color1, #c62100)" d="M118.088 24.796c-2.307 3.295-5.384 5.333-9.229 6.115-0.892 0.168-1.707 0.251-2.445 0.251-0.708 0-1.308 0-1.8 0-0.461-0.028-0.984-0.098-1.569-0.209s-1.123-0.293-1.615-0.544c-1.138-0.586-1.707-1.41-1.707-2.471-0.123-0.503-0.184-1.061-0.184-1.675 0-0.642 0.154-1.48 0.461-2.513s0.862-2.15 1.661-3.351c0.831-1.201 1.831-2.304 3-3.309 2.431-2.122 5.061-3.49 7.892-4.105 0.83-0.168 1.584-0.251 2.261-0.251 0.708 0 1.338 0.042 1.892 0.126 1.784 0 2.984 1.103 3.6 3.309 0.4 1.396 0.631 3.351 0.692 5.864 0.092 2.485 0.169 4.412 0.231 5.78 0.092 1.34 0.293 2.569 0.6 3.686h-2.723c-0.123-0.754-0.216-1.424-0.277-2.011s-0.123-1.131-0.184-1.634c-0.154-1.173-0.339-2.192-0.554-3.058zM117.903 18.304c0-1.619-0.876-2.429-2.631-2.429-0.215-0.028-0.43-0.042-0.646-0.042-2.246 0-4.615 0.977-7.107 2.932-1.169 0.894-2.168 1.899-3 3.016-1.23 1.592-1.846 3.016-1.846 4.272 0 1.648 1.046 2.625 3.138 2.932 2.769-0.056 5.415-1.201 7.937-3.435 1.077-0.977 1.969-2.038 2.677-3.183 0.984-1.536 1.477-2.89 1.477-4.063z"></path>
<path fill="#c62100" style="fill: var(--color1, #c62100)" d="M124.409 15.539c-0.061-0.14-0.092-0.293-0.092-0.461 0-0.195 0.077-0.447 0.231-0.754s0.37-0.572 0.647-0.796c0.308-0.223 0.631-0.321 0.968-0.293 0.37 0 0.662 0.195 0.877 0.586l7.752 13.068c0.247-0.335 0.631-0.949 1.154-1.843 0.553-0.922 1.169-1.955 1.846-3.099 0.708-1.145 1.431-2.332 2.169-3.56 0.769-1.256 1.476-2.401 2.122-3.435 1.477-2.373 2.353-3.56 2.631-3.56 0.646 0 1.107 0.223 1.384 0.67 0.307 0.419 0.461 0.74 0.461 0.963s0 0.377 0 0.461c-1.723 3.407-3.322 6.548-4.799 9.424-1.447 2.876-2.415 4.747-2.907 5.613-0.462 0.838-0.877 1.508-1.246 2.010-0.646 0.866-1.277 1.298-1.892 1.298s-1.323-0.433-2.123-1.298c-0.8-0.894-1.707-2.080-2.722-3.56-1.784-2.681-3.938-6.492-6.461-11.435z"></path>
<path fill="#c62100" style="fill: var(--color1, #c62100)" d="M157.912 28.817c2.708 0 6.784-1.117 12.229-3.351 0.339 0 0.616 0.112 0.831 0.335 0.216 0.195 0.323 0.433 0.323 0.712-1.23 1.899-3.584 3.379-7.061 4.44s-6.722 1.243-9.736 0.545c-3.415-0.81-5.492-2.555-6.23-5.236-0.061-0.531-0.092-1.243-0.092-2.136s0.246-2.066 0.738-3.518c0.523-1.48 1.4-2.876 2.631-4.189s2.677-2.345 4.338-3.099c1.661-0.754 3.43-1.131 5.306-1.131 1.784 0 3.784 0.558 5.999 1.675 1.047 0.531 1.877 1.131 2.492 1.801s0.923 1.354 0.923 2.052c0 0.195-0.016 0.391-0.046 0.586-0.062 1.703-0.969 2.778-2.723 3.225-0.769 0.195-1.661 0.293-2.677 0.293l-6.645-0.251c-2.216 0-3.908 0.433-5.077 1.298-0.677 0.475-1.153 1.187-1.431 2.136 0.77 2.541 2.739 3.811 5.907 3.811zM166.126 15.874c-0.677-0.447-1.384-0.768-2.123-0.963s-1.353-0.293-1.846-0.293-1.292 0.154-2.4 0.461c-1.107 0.279-2.091 0.6-2.952 0.963-2.123 0.894-3.185 1.829-3.185 2.806 2.461 0.195 4.308 0.293 5.538 0.293 3.415 0 5.722-0.265 6.922-0.796 0.738-0.279 1.107-0.628 1.107-1.047 0-0.503-0.354-0.977-1.061-1.424z"></path>
</symbol>
</defs>
</svg>
